<svg width="24" height="21" viewBox="0 0 24 21" fill="none" xmlns="http://www.w3.org/2000/svg">
<path d="M0 10.5C0 4.70101 5.37258 0 12 0C18.6274 0 24 4.70101 24 10.5C24 16.299 18.6274 21 12 21C5.37258 21 0 16.299 0 10.5ZM11.25 1.41298C10.2459 1.68168 9.24693 2.4901 8.41912 3.84823C8.20443 4.20045 8.00602 4.58304 7.82657 4.99224C8.88432 5.19869 10.0357 5.33022 11.25 5.36885V1.41298ZM6.37277 4.64551C6.58714 4.1414 6.82901 3.66794 7.09559 3.23059C7.36367 2.79077 7.66294 2.37879 7.99089 2.00596C6.70431 2.4714 5.54649 3.15413 4.57718 4.00187C5.1194 4.24316 5.72114 4.45958 6.37277 4.64551ZM5.26268 9.84374C5.31711 8.43936 5.54526 7.10407 5.91724 5.89613C5.06299 5.65296 4.27467 5.35896 3.57069 5.02089C2.40961 6.38626 1.67158 8.0434 1.52637 9.84374H5.26268ZM7.36304 6.24598C7.02933 7.3322 6.81745 8.5483 6.76359 9.84374H11.25V6.68212C9.8853 6.64159 8.57561 6.49107 7.36304 6.24598ZM12.75 6.68212V9.84374H17.2364C17.1825 8.5483 16.9707 7.3322 16.637 6.24598C15.4244 6.49107 14.1147 6.64159 12.75 6.68212ZM6.76359 11.1562C6.81745 12.4517 7.02933 13.6678 7.36304 14.754C8.57561 14.5089 9.8853 14.3584 11.25 14.3179V11.1562H6.76359ZM12.75 11.1562V14.3179C14.1147 14.3584 15.4244 14.5089 16.637 14.754C16.9707 13.6678 17.1825 12.4517 17.2364 11.1562H12.75ZM7.82657 16.0077C8.00602 16.4169 8.20443 16.7995 8.41912 17.1518C9.24693 18.5099 10.2459 19.3183 11.25 19.587V15.6311C10.0357 15.6698 8.88432 15.8013 7.82657 16.0077ZM7.9909 18.994C7.66294 18.6212 7.36367 18.2092 7.09559 17.7694C6.82901 17.332 6.58714 16.8586 6.37277 16.3545C5.72114 16.5404 5.1194 16.7568 4.57718 16.9981C5.54649 17.8459 6.70431 18.5286 7.9909 18.994ZM5.91724 15.1039C5.54526 13.8959 5.31711 12.5606 5.26268 11.1562H1.52637C1.67158 12.9566 2.40961 14.6137 3.57069 15.9791C4.27467 15.641 5.06299 15.347 5.91724 15.1039ZM16.0091 18.994C17.2957 18.5286 18.4535 17.8459 19.4228 16.9981C18.8806 16.7568 18.2788 16.5404 17.6272 16.3545C17.4128 16.8586 17.171 17.332 16.9044 17.7694C16.6363 18.2092 16.337 18.6212 16.0091 18.994ZM12.75 15.6311V19.587C13.7541 19.3183 14.7531 18.5099 15.5809 17.1518C15.7956 16.7995 15.994 16.4169 16.1734 16.0077C15.1157 15.8013 13.9642 15.6698 12.75 15.6311ZM18.0827 15.1039C18.937 15.347 19.7253 15.641 20.4293 15.9791C21.5904 14.6137 22.3284 12.9566 22.4736 11.1562H18.7373C18.6829 12.5606 18.4547 13.8959 18.0827 15.1039ZM22.4736 9.84374C22.3284 8.0434 21.5904 6.38626 20.4293 5.02089C19.7253 5.35896 18.937 5.65296 18.0827 5.89613C18.4547 7.10407 18.6829 8.43936 18.7373 9.84374H22.4736ZM16.9044 3.23059C17.171 3.66794 17.4128 4.1414 17.6272 4.64551C18.2788 4.45958 18.8806 4.24316 19.4228 4.00187C18.4535 3.15413 17.2957 2.4714 16.0091 2.00596C16.337 2.37879 16.6363 2.79077 16.9044 3.23059ZM16.1734 4.99224C15.994 4.58304 15.7956 4.20045 15.5809 3.84823C14.7531 2.4901 13.7541 1.68168 12.75 1.41298V5.36885C13.9642 5.33022 15.1157 5.19869 16.1734 4.99224Z" fill="black"/>
</svg>
